HIERARCHY
ROOT Hips
{
	OFFSET 0.000000 0.000000 0.000000
	CHANNELS 6 Xposition Yposition Zposition Xrotation Yrotation Zrotation
	JOINT Chest
	{
		OFFSET 0.000000 9.585900 0.002600
		CHANNELS 3 Xrotation Yrotation Zrotation
		JOINT Chest2
		{
			OFFSET 0.000000 9.601200 -0.005300
			CHANNELS 3 Xrotation Yrotation Zrotation
			JOINT Chest3
			{
				OFFSET 0.000000 9.561800 0.000000
				CHANNELS 3 Xrotation Yrotation Zrotation
				JOINT Chest4
				{
					OFFSET 0.000000 9.552100 0.000000
					CHANNELS 3 Xrotation Yrotation Zrotation
					JOINT Neck
					{
						OFFSET 0.000000 14.453000 0.000000
						CHANNELS 3 Xrotation Yrotation Zrotation
						JOINT Head
						{
							OFFSET 0.000000 8.936500 -0.011300
							CHANNELS 3 Xrotation Yrotation Zrotation
							End Site
							{
								OFFSET 0.000000 0.000000 0.000000
							}
						}
					}
					JOINT RightCollar
					{
						OFFSET -2.921100 9.558500 0.000000
						CHANNELS 3 Xrotation Yrotation Zrotation
						JOINT RightShoulder
						{
							OFFSET -13.519700 0.000000 0.000000
							CHANNELS 3 Xrotation Yrotation Zrotation
							JOINT RightElbow
							{
								OFFSET 0.000000 -29.696600 0.000000
								CHANNELS 3 Xrotation Yrotation Zrotation
								JOINT RightWrist
								{
									OFFSET 0.000000 -24.004700 0.000000
									CHANNELS 3 Xrotation Yrotation Zrotation
									End Site
									{
										OFFSET 0.000000 0.000000 0.000000
									}
								}
							}
						}
					}
					JOINT LeftCollar
					{
						OFFSET 2.921100 9.558500 0.000000
						CHANNELS 3 Xrotation Yrotation Zrotation
						JOINT LeftShoulder
						{
							OFFSET 13.519700 0.000000 0.000000
							CHANNELS 3 Xrotation Yrotation Zrotation
							JOINT LeftElbow
							{
								OFFSET 0.000000 -29.696600 0.000000
								CHANNELS 3 Xrotation Yrotation Zrotation
								JOINT LeftWrist
								{
									OFFSET 0.000000 -24.004700 0.000000
									CHANNELS 3 Xrotation Yrotation Zrotation
									End Site
									{
										OFFSET 0.000000 0.000000 0.000000
									}
								}
							}
						}
					}
				}
			}
		}
	}
	JOINT RightHip
	{
		OFFSET -7.771700 -0.012900 -0.001300
		CHANNELS 3 Xrotation Yrotation Zrotation
		JOINT RightKnee
		{
			OFFSET 0.000000 -40.869801 0.001200
			CHANNELS 3 Xrotation Yrotation Zrotation
			JOINT RightAnkle
			{
				OFFSET 0.000000 -39.717899 0.002100
				CHANNELS 3 Xrotation Yrotation Zrotation
				JOINT RightToe
				{
					OFFSET 0.000000 -4.965400 11.033500
					CHANNELS 3 Xrotation Yrotation Zrotation
					End Site
					{
						OFFSET 0.000000 0.000000 0.000000
					}
				}
			}
		}
	}
	JOINT LeftHip
	{
		OFFSET 7.771700 -0.012900 -0.001300
		CHANNELS 3 Xrotation Yrotation Zrotation
		JOINT LeftKnee
		{
			OFFSET 0.000000 -40.869801 0.001200
			CHANNELS 3 Xrotation Yrotation Zrotation
			JOINT LeftAnkle
			{
				OFFSET 0.000000 -39.717899 0.002100
				CHANNELS 3 Xrotation Yrotation Zrotation
				JOINT LeftToe
				{
					OFFSET 0.000000 -4.965400 11.033500
					CHANNELS 3 Xrotation Yrotation Zrotation
					End Site
					{
						OFFSET 0.000000 0.000000 0.000000
					}
				}
			}
		}
	}
}
MOTION
Frames: 11
Frame Time: 0.032
0.0 0.0 0.0 -147.206532 -3.303605 -179.241513 20.909046 0.347042 3.253488 3.096908 0.656559 1.483365 4.331262 -0.213551 0.780399 18.974110 1.434883 2.248246 13.482872 -0.090510 -2.991682 -5.780738 6.559205 -4.722093 -3.406527 1.890955 -3.349631 -23.651053 26.509936 -13.753137 -88.461250 33.193989 31.923030 -21.374093 -30.335701 -46.584612 0.774596 -4.122658 -1.082124 -13.266686 0.015967 1.198358 -78.170033 2.804881 -11.539235 -22.906498 4.880810 18.611816 -44.436084 5.759364 -2.793254 70.341099 -2.324742 -5.710782 21.076886 7.203954 8.968727 -2.322661 -0.097565 0.302677 -40.420663 -4.115516 -4.847331 77.704159 4.158915 -0.424882 -11.153735 -8.241521 -1.813511 -0.617307 -0.268710 -0.382167
0.0 0.0 0.0 -147.157245 -3.264263 -179.183060 20.893402 0.326320 3.189322 3.063296 0.644610 1.533820 4.303211 -0.240542 0.843658 18.941586 1.422294 2.326353 13.474579 -0.121041 -3.071116 -5.774998 6.541995 -4.773324 -3.436132 1.843396 -3.438757 -23.630238 26.460190 -13.798648 -88.749490 33.067528 32.045065 -21.465509 -30.296725 -46.592747 0.739447 -4.144632 -1.013774 -13.312616 0.019602 1.292338 -78.341396 2.877569 -11.594748 -22.898377 4.907279 18.551280 -44.456356 5.771371 -2.852735 70.322248 -2.378801 -5.749846 21.075677 7.199420 8.902781 -2.327087 -0.105595 0.239571 -40.440375 -4.141285 -4.815052 77.676115 4.075999 -0.478030 -11.154510 -8.271104 -1.743141 -0.622174 -0.276778 -0.377602
0.0 0.0 0.0 -147.221367 -3.350045 -179.209069 20.920974 0.318871 3.264348 3.068067 0.673999 1.553370 4.310943 -0.223269 0.858657 18.955848 1.439689 2.348208 13.472056 -0.085016 -2.979075 -5.824749 6.513041 -4.715299 -3.417327 1.852115 -3.319730 -23.706630 26.482126 -13.778267 -89.097816 33.159158 32.116437 -21.482799 -30.209387 -46.631341 0.724358 -4.133070 -0.984885 -13.304090 0.076850 1.353407 -78.523700 2.848248 -11.405225 -22.980093 4.880154 18.635276 -44.431928 5.769116 -2.767514 70.278924 -2.373506 -5.715784 21.161733 7.252118 9.030264 -2.380720 -0.141713 0.298703 -40.398383 -4.132819 -4.791098 77.659702 4.149456 -0.401666 -11.209860 -8.335549 -1.779120 -0.668586 -0.310073 -0.361190
0.0 0.0 0.0 -147.126018 -3.335312 -179.166640 20.962571 0.327349 3.237585 3.105489 0.680655 1.514347 4.343246 -0.235142 0.826171 19.011241 1.430929 2.329270 13.515258 -0.113157 -3.056975 -5.743036 6.506976 -4.740827 -3.386392 1.798211 -3.407354 -23.644155 26.502288 -13.844349 -89.590560 33.209657 32.121300 -21.542867 -30.105288 -46.859339 0.810174 -4.120347 -1.018543 -13.274156 0.128415 1.369697 -78.847096 2.862301 -11.355345 -22.927439 4.910798 18.649451 -44.384232 5.787689 -2.853972 70.286574 -2.348980 -5.777002 21.333391 7.272543 8.987173 -2.306041 -0.139426 0.265452 -40.338998 -4.171034 -4.866992 77.645030 4.124040 -0.450312 -11.128641 -8.382764 -1.776597 -0.586920 -0.306522 -0.377477
0.0 0.0 0.0 -147.194729 -3.350610 -179.168361 20.889577 0.361509 3.247973 3.002065 0.735715 1.498014 4.242316 -0.192468 0.806240 18.916168 1.463620 2.307054 13.460193 -0.078989 -3.056593 -5.813861 6.550446 -4.730299 -3.496593 1.827197 -3.387459 -23.736576 26.527608 -13.819856 -90.100352 33.216467 32.256091 -21.605833 -29.937436 -46.914647 0.658612 -4.050539 -1.012381 -13.400622 0.256956 1.406399 -79.115270 2.976020 -11.265439 -22.996412 4.951700 18.694311 -44.441852 5.861445 -2.825084 70.255217 -2.340297 -5.736990 21.285953 7.351365 9.003473 -2.381527 -0.094855 0.276432 -40.383555 -4.078186 -4.887992 77.606071 4.127864 -0.403698 -11.200043 -8.353915 -1.805279 -0.659427 -0.260519 -0.382485
0.0 0.0 0.0 -147.091566 -3.333004 -179.063736 20.913628 0.361665 3.132941 3.029683 0.776684 1.605092 4.280233 -0.161229 0.936611 18.943519 1.517381 2.417921 13.492597 -0.072170 -3.160607 -5.782592 6.563898 -4.850939 -3.458984 1.833882 -3.526613 -23.676702 26.549680 -13.964175 -90.468540 33.217116 32.455058 -21.579129 -29.976966 -46.865357 0.720488 -4.003818 -0.873266 -13.404241 0.323479 1.587778 -79.335618 3.060449 -11.321500 -23.009113 4.999409 18.648421 -44.420221 5.919608 -2.902497 70.207911 -2.368563 -5.827874 21.392141 7.394164 8.907033 -2.361359 -0.083892 0.167907 -40.352734 -4.088401 -4.840246 77.569926 4.094175 -0.488250 -11.179939 -8.381585 -1.718587 -0.635300 -0.250307 -0.391529
0.0 0.0 0.0 -147.076581 -3.311172 -179.103857 20.962414 0.380625 3.187039 3.058940 0.762713 1.551981 4.299361 -0.184610 0.869843 18.966865 1.490658 2.362520 13.531437 -0.090092 -3.133151 -5.733242 6.540657 -4.779860 -3.429270 1.803356 -3.473758 -23.643326 26.483058 -13.896179 -90.639930 33.120796 32.406212 -21.542314 -29.879533 -46.931207 0.726710 -4.031545 -0.934846 -13.390965 0.329669 1.531329 -79.442845 3.042620 -11.310073 -22.918657 5.007689 18.713293 -44.387323 5.868592 -2.893495 70.266561 -2.337686 -5.799861 21.403499 7.381405 8.931055 -2.305732 -0.088731 0.219590 -40.322411 -4.108856 -4.884474 77.617047 4.113180 -0.473814 -11.126745 -8.398523 -1.744548 -0.582843 -0.254309 -0.382193
0.0 0.0 0.0 -147.176493 -3.372007 -179.172883 20.935300 0.424538 3.325877 2.993224 0.781522 1.446113 4.220708 -0.177990 0.755052 18.913535 1.482756 2.273394 13.494587 -0.071971 -3.051377 -5.778110 6.573888 -4.659559 -3.539571 1.799636 -3.369820 -23.721583 26.548594 -13.828362 -90.982716 33.290759 32.395218 -21.711158 -29.804681 -47.250006 0.657836 -3.992957 -1.053022 -13.492631 0.400014 1.500351 -79.623183 3.044529 -11.113169 -23.031000 4.988138 18.875887 -44.418257 5.899684 -2.830388 70.254820 -2.272492 -5.718421 21.465589 7.483029 9.052034 -2.348553 -0.068674 0.324993 -40.330932 -4.055274 -4.976424 77.601283 4.161505 -0.358957 -11.177656 -8.398868 -1.849311 -0.618773 -0.230604 -0.372061
0.0 0.0 0.0 -147.161835 -3.377945 -179.088694 20.889391 0.390126 3.250831 2.913831 0.788100 1.481136 4.150898 -0.196531 0.800629 18.857780 1.459573 2.299381 13.423148 -0.116971 -3.157819 -5.819450 6.557657 -4.757127 -3.618170 1.745175 -3.504773 -23.782034 26.615483 -13.910160 -91.857589 33.394694 32.661316 -21.759642 -29.578517 -47.279386 0.581044 -3.994346 -0.997224 -13.604449 0.477661 1.600608 -80.162672 3.085060 -11.019077 -23.110500 5.005808 18.874695 -44.462626 5.957875 -2.895822 70.150175 -2.325905 -5.776466 21.542196 7.470754 9.000805 -2.400977 -0.080025 0.257756 -40.366876 -4.058339 -5.001158 77.489261 4.050146 -0.386114 -11.215911 -8.463143 -1.802246 -0.662740 -0.240429 -0.380585
0.0 0.0 0.0 -147.077633 -3.415809 -179.107190 21.023131 0.418180 3.293719 3.035274 0.812201 1.451860 4.280721 -0.187033 0.767529 18.992849 1.477281 2.253619 13.535175 -0.095562 -3.126105 -5.705476 6.545839 -4.737599 -3.496409 1.723758 -3.450693 -23.733953 26.614459 -13.909953 -92.370153 33.451914 32.740484 -21.692011 -29.519565 -47.373314 0.730335 -3.965083 -1.020206 -13.491559 0.557842 1.622872 -80.427171 2.996106 -10.941901 -23.036942 5.013904 19.003063 -44.352216 5.927372 -2.876549 70.202330 -2.241583 -5.801394 21.763431 7.527497 9.064391 -2.289283 -0.090383 0.301782 -40.224903 -4.085588 -5.073470 77.544709 4.146500 -0.388157 -11.104270 -8.522088 -1.852056 -0.543550 -0.248918 -0.384141
0.0 0.0 0.0 -147.103888 -3.429529 -179.076645 20.926644 0.374218 3.229436 2.914384 0.803110 1.482526 4.149205 -0.205884 0.803301 18.881964 1.449307 2.251797 13.461318 -0.137878 -3.191324 -5.787736 6.563060 -4.831811 -3.666442 1.691477 -3.549416 -23.874725 26.678504 -13.929747 -93.026774 33.510742 33.037417 -21.803094 -29.506376 -47.547337 0.581246 -3.956945 -0.952943 -13.669200 0.622806 1.680161 -80.771761 3.045654 -10.873485 -23.168984 4.961598 19.033825 -44.429834 5.979231 -2.885326 70.096777 -2.303445 -5.812622 21.784941 7.569954 9.036092 -2.369323 -0.105122 0.253215 -40.283489 -4.051124 -5.099421 77.443601 4.023224 -0.378551 -11.178247 -8.563603 -1.843825 -0.619980 -0.258337 -0.401063
